<?xml version="1.0" encoding="UTF-8"?>
<svg version="1.1" xmlns="http://www.w3.org/2000/svg" width="1032" height="462">
<path d="M0 0 C0.98871094 0.12358887 1.97742188 0.24717773 2.99609375 0.37451172 C28.88386173 3.74106414 53.07042813 10.6558987 77 21 C78.13566406 21.48162598 79.27132812 21.96325195 80.44140625 22.45947266 C105.26456762 32.99832038 127.42216852 45.21415199 147 64 C148.41152344 65.31677734 148.41152344 65.31677734 149.8515625 66.66015625 C162.46871835 78.64676239 172.07772627 92.55972951 180 108 C180.31807617 108.61166016 180.63615234 109.22332031 180.96386719 109.85351562 C205.54200488 157.67430182 203.57731047 215.8241054 188 266 C187.32055305 268.32993217 186.65876683 270.66409743 186 273 C186.61746094 273.47308594 187.23492188 273.94617188 187.87109375 274.43359375 C195.55730907 280.43515914 202.63997141 286.67894477 208.4375 294.5625 C211.63366089 298.82404785 215.32485567 301.81769448 219.5234375 305.05859375 C235.75039295 317.77909353 245.09061016 337.3834888 247.6875 357.625 C249.62948341 380.28147312 243.90483026 401.97221184 229.1796875 419.53125 C212.9198612 437.94739735 190.77070194 450.54243208 165.90771484 452.20703125 C136.6274298 453.41928614 111.33990869 446.90286663 89.14453125 427.0546875 C81.28436461 419.66230136 75.38043629 411.09735136 70.51953125 401.515625 C68.30352481 397.84696652 65.36498323 395.19101815 62.2578125 392.2734375 C53 382.95155709 53 382.95155709 53 378 C52.01 378 51.02 378 50 378 C50.01160156 379.30710937 50.02320313 380.61421875 50.03515625 381.9609375 C50.31499645 425.64893158 50.31499645 425.64893158 39 438 C38.47535156 438.61488281 37.95070313 439.22976563 37.41015625 439.86328125 C30.98023192 446.9286334 21.75130048 451.54150632 12.17531586 452.19182968 C8.65565268 452.27445932 5.14076348 452.29306533 1.62011719 452.29052734 C0.26748791 452.2965192 -1.08513796 452.30332626 -2.4377594 452.31088257 C-6.09707613 452.32848485 -9.7562992 452.33323555 -13.41565418 452.33451414 C-15.70681788 452.3359398 -17.99795807 452.34021727 -20.28911591 452.34550858 C-28.29643758 452.36399113 -36.30369285 452.37218159 -44.31103516 452.37060547 C-51.7518034 452.36940517 -59.19228105 452.39048992 -66.63297582 452.4220928 C-73.04004367 452.44832684 -79.44701705 452.45896976 -85.85413814 452.45769465 C-89.67242716 452.45718702 -93.49045784 452.46275873 -97.30869293 452.48405075 C-100.90397908 452.50355351 -104.49876368 452.50347666 -108.09406853 452.48901749 C-110.02540928 452.48596187 -111.95675074 452.50252203 -113.88801575 452.51989746 C-122.85468426 452.45585614 -130.53236529 451.00881521 -138.0625 445.9375 C-141.76028239 444.75735668 -142.55846193 445.46246555 -145.9375 447.1875 C-146.73027344 447.65542969 -147.52304687 448.12335938 -148.33984375 448.60546875 C-155.30388864 452.25622356 -161.84561691 452.29248821 -169.55981445 452.2746582 C-170.70544861 452.27976913 -171.85108276 452.28488007 -173.03143311 452.29014587 C-176.80876936 452.30401589 -180.58592259 452.30308684 -184.36328125 452.30078125 C-186.9973304 452.30466992 -189.63137892 452.30900494 -192.26542664 452.31376648 C-197.78398248 452.32196673 -203.3024871 452.32108039 -208.82104492 452.31567383 C-215.17911922 452.30964003 -221.53697189 452.32193467 -227.89500839 452.3432439 C-234.03474298 452.36305689 -240.17437476 452.36602488 -246.31413841 452.36250877 C-248.91554471 452.36302087 -251.51695464 452.3682375 -254.11834145 452.37832069 C-257.76306646 452.39071326 -261.40728452 452.38387562 -265.05200195 452.37231445 C-266.65068367 452.38378006 -266.65068367 452.38378006 -268.28166199 452.39547729 C-279.72920809 452.31557334 -289.00577543 449.17652948 -298 442 C-302.79093944 437.070547 -311 428.30959731 -311 421 C-314.0194796 423.64670434 -315.74416216 426.79995891 -317.75 430.25 C-324.25270417 441.07586476 -332.04956611 447.86614416 -344.2571907 451.38441658 C-348.76503666 452.39613666 -353.1636031 452.42596535 -357.76708984 452.40405273 C-359.30581505 452.41434761 -359.30581505 452.41434761 -360.87562561 452.42485046 C-364.23754052 452.44302221 -367.59898443 452.43929437 -370.9609375 452.43359375 C-373.31686554 452.43816036 -375.67279225 452.44346736 -378.02871704 452.44947815 C-382.95604885 452.45839056 -387.88321842 452.45600759 -392.81054688 452.44604492 C-399.10035726 452.43456179 -405.38960566 452.45476696 -411.67934227 452.48396206 C-416.54205843 452.50237795 -421.40464127 452.50202076 -426.26738358 452.49632454 C-428.5852398 452.49617196 -430.90310542 452.50216309 -433.22092819 452.51461601 C-451.67529735 452.5998031 -464.24679479 451.45417506 -478 438.25 C-479.75 436.515625 -479.75 436.515625 -481 435 C-481 434.34 -481 433.68 -481 433 C-481.680625 433.680625 -482.36125 434.36125 -483.0625 435.0625 C-483.52398437 435.51753906 -483.98546875 435.97257812 -484.4609375 436.44140625 C-485.51333294 437.50715696 -486.53864106 438.60016098 -487.5390625 439.71484375 C-493.87987379 446.58155171 -502.61019802 451.32090499 -512.04002035 452.1874702 C-514.33652002 452.2621803 -516.62555636 452.27623328 -518.92326355 452.26742554 C-519.79874149 452.27195665 -520.67421943 452.27648776 -521.57622701 452.28115618 C-524.49773102 452.29377456 -527.419048 452.29218145 -530.34057617 452.29052734 C-532.44034056 452.29651426 -534.54010275 452.30332019 -536.63986206 452.31088257 C-542.33636439 452.32853491 -548.03280661 452.33323768 -553.72933364 452.33451414 C-557.2915654 452.33593694 -560.85378193 452.34020903 -564.4160099 452.34550858 C-576.852952 452.36400762 -589.28985125 452.3721795 -601.72680664 452.37060547 C-613.3039587 452.3694047 -624.88092413 452.39049474 -636.45802897 452.4220928 C-646.40987655 452.44828305 -656.36166329 452.45897158 -666.31354505 452.45769465 C-672.2517877 452.45718575 -678.18986453 452.46282911 -684.12807274 452.48405075 C-689.71696937 452.50347885 -695.30554281 452.50352619 -700.89445114 452.48901749 C-702.93898175 452.48693385 -704.98353283 452.49160357 -707.02802849 452.5037384 C-722.07214228 452.58720554 -734.49345118 451.79708916 -746 441 C-746.63808594 440.40316406 -747.27617188 439.80632812 -747.93359375 439.19140625 C-756.41371108 430.41949994 -759.01526493 419.38921777 -759.39704895 407.55377197 C-759.42774953 406.70418561 -759.45845011 405.85459924 -759.49008101 404.97926784 C-759.59207531 402.12985604 -759.68821934 399.28027677 -759.78442383 396.43066406 C-759.85653006 394.38402529 -759.92901387 392.3373998 -760.00184631 390.29078674 C-760.1585479 385.86688074 -760.31272794 381.44289638 -760.46503639 377.01883698 C-760.70926111 369.93057871 -760.96016438 362.8425661 -761.21208191 355.75457764 C-761.83941285 338.07580323 -762.4589262 320.39675576 -763.07513428 302.71759033 C-763.67511113 285.50420323 -764.27932262 268.29097517 -764.89453125 251.078125 C-764.93762468 249.87212568 -764.98071811 248.66612636 -765.0251174 247.4235816 C-766.19869069 214.65479484 -767.5085093 181.89721307 -769.15234375 149.1484375 C-769.19328478 148.33172105 -769.23422581 147.5150046 -769.27640748 146.67353916 C-770.47198138 122.88658156 -771.80066877 99.10735195 -773.32343578 75.33893967 C-775.48809452 40.83251672 -775.48809452 40.83251672 -764.140625 26.375 C-761.07642838 22.97530739 -757.90117645 20.37631184 -754 18 C-753.4328125 17.63519531 -752.865625 17.27039063 -752.28125 16.89453125 C-747.1830156 13.97646288 -741.61049136 12.82653 -735.94238281 11.50610352 C-731.27683202 10.39669295 -727.07656467 8.98043547 -722.796875 6.83203125 C-719.50643403 5.30841402 -716.43245077 4.87497816 -712.82883835 4.87415886 C-712.00024299 4.87155111 -711.17164764 4.86894336 -710.31794333 4.86625659 C-708.9603737 4.86960268 -708.9603737 4.86960268 -707.57537842 4.87301636 C-706.60980334 4.87145637 -705.64422825 4.86989638 -704.64939332 4.86828911 C-701.40524421 4.86429203 -698.16114167 4.86746384 -694.91699219 4.87060547 C-692.59443637 4.86925082 -690.27188076 4.86747053 -687.94932556 4.86529541 C-681.63310567 4.86072763 -675.31690207 4.86250823 -669.00068188 4.8656745 C-663.06340733 4.86794651 -657.12613481 4.8662139 -651.18886021 4.8647473 C-638.70783047 4.86189469 -626.22680808 4.86517564 -613.74577954 4.87054767 C-603.04422044 4.87501133 -592.34267219 4.87424296 -581.64111328 4.86962891 C-569.21101937 4.86427208 -556.7809319 4.86217376 -544.35083699 4.86524117 C-537.77222639 4.86679981 -531.19362325 4.8670091 -524.61501312 4.86370468 C-518.42627787 4.86081348 -512.23756308 4.86282469 -506.04883003 4.86859894 C-503.77848151 4.86992005 -501.50813126 4.86954342 -499.23778343 4.86733627 C-496.13601784 4.86459918 -493.03431759 4.8680373 -489.93255615 4.87301636 C-489.03643262 4.87078564 -488.14030908 4.86855491 -487.21703029 4.86625659 C-483.29498678 4.87844656 -479.51435349 5.01297006 -475.62921524 5.57043648 C-472.38368134 5.95458646 -470.9867763 5.8951929 -468 5 C-465.82859377 4.90206249 -463.65441895 4.86077294 -461.4808197 4.85282898 C-460.8277113 4.84915229 -460.17460289 4.8454756 -459.50170332 4.8416875 C-457.31484823 4.83068123 -455.12804071 4.82681199 -452.94116211 4.82299805 C-451.37223155 4.81673093 -449.80330247 4.81008391 -448.234375 4.80308533 C-443.08204172 4.78206656 -437.92970822 4.77168284 -432.77734375 4.76171875 C-431.0007329 4.75766994 -429.22412221 4.75355298 -427.44751167 4.74936867 C-419.09728085 4.73031933 -410.74705884 4.71608952 -402.39681047 4.7077567 C-392.77396037 4.69799432 -383.15134091 4.6716999 -373.52857202 4.63125581 C-366.08124539 4.60103499 -358.63398462 4.58628205 -351.18659788 4.58297569 C-346.7433988 4.5806314 -342.30044618 4.57175269 -337.85731316 4.54651451 C-333.67197048 4.52312503 -329.48703462 4.51904389 -325.30164337 4.52927589 C-323.77270461 4.52976878 -322.24374509 4.52352178 -320.71486855 4.50971985 C-309.34561108 4.41289848 -300.03627089 6.0493345 -290.3125 12.25 C-289.06919922 13.03117187 -289.06919922 13.03117187 -287.80078125 13.828125 C-287.20652344 14.21484375 -286.61226563 14.6015625 -286 15 C-284.98292969 14.29423828 -284.98292969 14.29423828 -283.9453125 13.57421875 C-283.01460938 12.95160156 -282.08390625 12.32898437 -281.125 11.6875 C-280.22007812 11.07261719 -279.31515625 10.45773438 -278.3828125 9.82421875 C-270.17473901 5.39792508 -262.2870404 4.56431272 -253.08154297 4.63110352 C-251.93179489 4.62733704 -250.78204681 4.62357056 -249.59745789 4.61968994 C-247.11220995 4.61328149 -244.62693749 4.61356481 -242.1416893 4.61987495 C-238.17500467 4.62906185 -234.20861386 4.61915511 -230.24197388 4.60325623 C-220.37216924 4.56729287 -210.50237172 4.56079339 -200.63250732 4.56335449 C-190.98144755 4.5656854 -181.33063676 4.55271243 -171.6796875 4.50390625 C-171.01263345 4.50067714 -170.34557941 4.49744803 -169.65831161 4.49412107 C-150.45111793 4.39285266 -131.8541958 3.52707288 -112.89538574 0.43942261 C-105.95325325 -0.61416066 -98.9456195 -0.9400029 -91.9375 -1.25 C-91.18514069 -1.286698 -90.43278137 -1.323396 -89.65762329 -1.36120605 C-60.00736107 -2.78672503 -29.50090599 -3.79193045 0 0 Z " fill="#FEFEFE" transform="translate(774,10)"/>
<path d="M0 0 C2.46389051 -0.00980275 4.92776803 -0.02416613 7.39160156 -0.0435791 C31.30997549 -0.20828255 54.61818873 1.92217226 77.94604492 7.29754639 C78.92702148 7.5205542 79.90799805 7.74356201 80.91870117 7.97332764 C83.63170677 8.65682055 86.27889146 9.45143896 88.94604492 10.29754639 C89.62505859 10.50685791 90.30407227 10.71616943 91.00366211 10.93182373 C111.36639553 17.29033478 129.50775042 26.66785192 145.94604492 40.29754639 C146.96182617 41.13028076 147.97760742 41.96301514 149.02416992 42.82098389 C172.05203022 62.69698621 184.55870075 91.7951637 187.66088867 121.67254639 C190.2975243 159.11107666 184.28642405 197.1346131 159.82885742 226.87176514 C157.59153061 229.4076676 155.28915027 231.85919285 152.94604492 234.29754639 C151.67954102 235.65879639 151.67954102 235.65879639 150.38745117 237.04754639 C134.88624032 253.24619924 115.28302211 263.16917365 93.94604492 269.29754639 C92.91995117 269.6030542 91.89385742 269.90856201 90.83666992 270.22332764 C82.04293982 272.54059435 72.99821459 273.30365972 63.96948242 274.20843506 C62.87893555 274.32163086 61.78838867 274.43482666 60.66479492 274.55145264 C59.19429687 274.69562622 59.19429687 274.69562622 57.6940918 274.8427124 C54.79915967 275.32185762 52.52662052 275.8892584 49.94604492 277.29754639 C48.87377395 280.32936001 48.76219811 283.32711568 48.63647461 286.52166748 C48.59262634 287.56309906 48.54877808 288.60453064 48.50360107 289.67752075 C48.45882629 290.79736359 48.41405151 291.91720642 48.36791992 293.07098389 C48.25842959 295.44603889 48.14771444 297.82103769 48.03588867 300.19598389 C47.86243733 303.93722623 47.69582613 307.67816324 47.55004883 311.42059326 C47.40669059 315.03455446 47.23361025 318.64609414 47.05541992 322.25848389 C47.01874207 323.37427826 46.98206421 324.49007263 46.9442749 325.63967896 C46.58876369 332.23731 45.92303049 335.79886112 40.94604492 340.29754639 C38.662065 341.43953635 37.37447356 341.43258163 34.83563232 341.45144653 C33.97489609 341.460047 33.11415985 341.46864746 32.2273407 341.47750854 C30.80757683 341.48389847 30.80757683 341.48389847 29.35913086 341.49041748 C28.3638588 341.49859497 27.36858673 341.50677246 26.34315491 341.51519775 C23.03891609 341.54007522 19.7347203 341.55657406 16.43041992 341.57098389 C15.30338905 341.57630756 14.17635818 341.58163124 13.01517487 341.58711624 C7.04959289 341.61385838 1.08403192 341.63322967 -4.8815918 341.64764404 C-11.04670476 341.66429197 -17.21128317 341.70906854 -23.376194 341.76001549 C-28.11340964 341.7936564 -32.85049794 341.80521809 -37.58782196 341.81087112 C-39.86043125 341.81759257 -42.13303191 341.83283765 -44.40552521 341.85676193 C-47.58728188 341.88834663 -50.76759089 341.88845977 -53.94946289 341.88104248 C-54.88787521 341.89744781 -55.82628754 341.91385315 -56.7931366 341.93075562 C-61.14368052 341.88925415 -64.13687826 341.70346656 -67.62298584 338.94857788 C-74.98752304 330.91736969 -72.38593916 311.65047145 -72.73754883 300.98114014 C-72.79756587 299.21928587 -72.85783406 297.45744014 -72.91833496 295.69560242 C-73.04579415 291.97228418 -73.17177979 288.24892031 -73.29660034 284.5255127 C-73.49361527 278.65529645 -73.6952915 272.785246 -73.89794922 266.91522217 C-73.96586829 264.94671638 -74.03378517 262.97821053 -74.10169983 261.00970459 C-74.13514055 260.04059143 -74.16858128 259.07147827 -74.20303535 258.07299805 C-74.36871245 253.26651791 -74.53359175 248.46001045 -74.69848633 243.65350342 C-74.76033252 241.85184724 -74.82218138 240.05019115 -74.8840332 238.24853516 C-74.98831004 235.21090057 -75.09247448 232.17326218 -75.1965332 229.13562012 C-76.95750015 177.84153159 -79.34023741 126.56151107 -82.20239258 75.31707764 C-82.27237017 74.06366609 -82.27237017 74.06366609 -82.34376144 72.78493309 C-82.78898629 64.825738 -83.24015871 56.86691601 -83.70509529 48.90884686 C-83.87271541 46.03307493 -84.03792852 43.15716715 -84.20286942 40.28124046 C-84.31469268 38.35067458 -84.4303753 36.4203334 -84.54623413 34.49000549 C-84.86834525 28.87893587 -85.12912425 23.27084359 -85.22875977 17.65106201 C-85.2460614 16.70541382 -85.26336304 15.75976562 -85.28118896 14.78546143 C-85.03738539 12.11612988 -84.57451668 10.81106397 -82.99145508 8.67254639 C-75.76750201 2.83190348 -65.00794336 3.13304177 -56.05395508 2.29754639 C-55.0974707 2.20441162 -54.14098633 2.11127686 -53.15551758 2.01531982 C-35.45956329 0.37164649 -17.76303831 0.06943598 0 0 Z " fill="#F98562" transform="translate(720.053955078125,49.70245361328125)"/>
<path d="M0 0 C1.12279861 -0.00554901 2.24559723 -0.01109802 3.40242004 -0.01681519 C7.10197043 -0.02859518 10.80029171 -0.00435222 14.49975586 0.02148438 C17.07612553 0.02319585 19.65249694 0.02312942 22.22886658 0.0213623 C27.62313841 0.02301459 33.0169652 0.04111282 38.41113281 0.07324219 C44.63753712 0.11014955 50.86348171 0.11891416 57.08998114 0.11194468 C63.09415708 0.10562878 69.0981358 0.11662737 75.10229301 0.13591003 C77.65117056 0.14293819 80.20006196 0.14606479 82.74894905 0.1452179 C86.31075193 0.14701642 89.87190354 0.16840381 93.43359375 0.1953125 C94.48571045 0.1923819 95.53782715 0.18945129 96.62182617 0.18643188 C103.49944608 0.26656088 107.92790655 1.1904946 113.21069336 5.89257812 C117.24171937 11.10891582 118.74534969 17.96901088 120.71459961 24.17773438 C121.34600453 26.15700636 121.98154459 28.13445983 122.63023376 30.10813904 C123.21735538 31.89550436 123.78883098 33.68798701 124.359375 35.48071289 C125.98961967 39.43363286 127.99190753 42.49146427 131.56225586 44.90820312 C136.66448223 46.63437691 142.6352722 46.43054758 147.58959961 44.42773438 C152.07133145 40.48924276 154.430799 36.27463748 156.64038086 30.77539062 C157.18727949 29.45156355 157.73482585 28.1280039 158.28295898 26.8046875 C159.1264786 24.74305011 159.96391009 22.67946215 160.78955078 20.6105957 C167.09360692 4.89448072 167.09360692 4.89448072 175.65209961 0.61523438 C178.17794273 0.50150228 180.67686459 0.44742342 183.20361328 0.43823242 C183.9827005 0.43166122 184.76178772 0.42509003 185.56448364 0.4183197 C188.14967949 0.39856757 190.73481712 0.38691816 193.32006836 0.37695312 C194.64466788 0.37083983 194.64466788 0.37083983 195.99602699 0.36460304 C200.67247917 0.34373135 205.34890193 0.32943598 210.02539062 0.32006836 C214.84964878 0.30901843 219.67344384 0.27463819 224.49753857 0.23489666 C228.21139872 0.20871054 231.92514905 0.20037462 235.6390934 0.19678688 C237.41684397 0.19192388 239.19458974 0.18031802 240.97224998 0.16174889 C243.46640677 0.13732078 245.95937273 0.13832911 248.45361328 0.14526367 C249.54726448 0.12604858 249.54726448 0.12604858 250.66300964 0.10644531 C256.17181001 0.16202178 259.19790551 1.61866885 263.65209961 4.61523438 C265.42944336 6.43945312 265.42944336 6.43945312 266.58959961 8.30273438 C266.99049805 8.90472656 267.39139648 9.50671875 267.80444336 10.12695312 C270.14028338 16.98377384 268.87217494 21.7509146 265.79272461 28.06445312 C264.51395942 30.48961657 263.21888425 32.89872581 261.90209961 35.30273438 C261.20916577 36.5992824 260.5177781 37.89665787 259.82788086 39.19482422 C258.1059689 42.42393614 256.36271801 45.64088635 254.61083984 48.8538208 C253.2345802 51.38230801 251.87366917 53.91899237 250.51147461 56.45507812 C248.11052039 60.90610286 245.67679404 65.33817161 243.22827148 69.76318359 C241.5241089 72.84683095 239.83033465 75.93607314 238.13647461 79.02539062 C229.90953565 93.98257216 221.33702088 108.70448502 212.58666992 123.36035156 C209.51364318 128.53066863 206.48788577 133.72822348 203.46459961 138.92773438 C198.26628345 147.8659853 193.02431092 156.77722091 187.73730469 165.66333008 C187.22965576 166.51886475 186.72200684 167.37439941 186.19897461 168.25585938 C185.75392578 169.00383789 185.30887695 169.75181641 184.8503418 170.52246094 C181.82700885 175.80282158 180.69106092 179.49673378 181.65209961 185.61523438 C183.15507766 189.84628499 185.16502636 193.76985756 187.2199707 197.75683594 C187.81925764 198.95122737 188.41694717 200.14642143 189.01316833 201.34234619 C190.62747648 204.56928241 192.26360716 207.78468918 193.90391111 210.99847126 C195.6205005 214.37138967 197.31618367 217.75478502 199.0140686 221.137146 C202.23093383 227.537807 205.46569099 233.92924167 208.70735419 240.31737304 C213.10880029 248.9931049 217.48483531 257.68162452 221.86159062 266.36983061 C222.91387848 268.45865273 223.96625754 270.54742887 225.01870728 272.63616943 C225.53063879 273.65222374 225.53063879 273.65222374 226.05291235 274.68880439 C228.07863829 278.70793588 230.10866936 282.72485605 232.14277244 286.7397542 C233.1030038 288.63517254 234.06243215 290.53099518 235.0216217 292.42694092 C236.19008094 294.73576854 237.36014509 297.04378492 238.53211975 299.35083008 C239.04813248 300.37122375 239.5641452 301.39161743 240.09579468 302.44293213 C240.54378607 303.32630375 240.99177746 304.20967537 241.45334435 305.11981583 C244.71601577 311.9116365 246.02753774 317.48891998 243.58959961 324.80273438 C240.51111736 329.27149893 236.85035467 332.88248269 231.65209961 334.61523438 C229.46082566 334.71991383 227.2664913 334.7638954 225.07275391 334.77636719 C224.40895721 334.78133209 223.74516052 334.786297 223.06124878 334.79141235 C220.86626139 334.80601109 218.67134631 334.81283253 216.47631836 334.81835938 C214.94798277 334.82411323 213.4196472 334.82987093 211.89131165 334.83563232 C208.68600122 334.84613615 205.48071583 334.85198269 202.27539062 334.85546875 C198.17641464 334.86094866 194.07777164 334.88496828 189.97889996 334.9134407 C186.82095893 334.93210382 183.66309748 334.93727466 180.50510597 334.93880463 C178.99448643 334.94182399 177.48386806 334.94982831 175.97330284 334.96298981 C173.85515715 334.98012601 171.7378166 334.97815206 169.61962891 334.97167969 C168.4162236 334.97532532 167.2128183 334.97897095 165.97294617 334.98272705 C159.81559195 334.30133978 155.99813493 331.52337353 152.24145508 326.86328125 C148.8650107 322.08750554 146.06863166 316.96358664 143.21459961 311.86523438 C139.55346865 305.37487734 135.89047463 298.88870837 131.99194336 292.53710938 C131.46850342 291.68213867 130.94506348 290.82716797 130.40576172 289.94628906 C127.99976619 286.74812043 125.23532569 284.40684741 121.65209961 282.61523438 C117.29013392 282.21377913 113.12431871 282.10166957 108.96459961 283.55273438 C102.22630916 289.56256099 97.72007444 297.54878749 93.27709961 305.30273438 C92.14181462 307.24237636 91.00509352 309.18117849 89.86694336 311.11914062 C88.34457067 313.71939436 86.82312518 316.32000795 85.31274414 318.92724609 C84.17503406 320.8778015 83.01239302 322.81063838 81.83959961 324.74023438 C81.2144043 325.7946875 80.58920898 326.84914063 79.94506836 327.93554688 C76.3430107 332.14510659 72.29520851 334.26167137 66.85215759 334.98977661 C63.57842508 335.14270948 60.32776923 335.16970115 57.05053711 335.14648438 C55.25768784 335.15222473 55.25768784 335.15222473 53.42861938 335.15808105 C50.91228387 335.16079322 48.39591982 335.15348106 45.87963867 335.13671875 C42.03232018 335.11526349 38.18686114 335.13656576 34.33959961 335.16210938 C31.88907467 335.15946672 29.43855088 335.15434303 26.98803711 335.14648438 C25.8410434 335.1545813 24.69404968 335.16267822 23.51229858 335.17102051 C16.06043843 335.08360702 12.39067008 334.24724227 7.00756836 329.01757812 C3.39050499 324.48112742 2.14930768 321.02556514 2.25878906 315.30712891 C2.7171051 312.17032403 3.74602853 310.16752897 5.31616211 307.41992188 C5.86312744 306.45538086 6.41009277 305.49083984 6.97363281 304.49707031 C7.52752686 303.54606445 8.0814209 302.59505859 8.65209961 301.61523438 C9.12671631 300.79571289 9.60133301 299.97619141 10.09033203 299.13183594 C11.53554301 296.66011761 12.99797296 294.19930104 14.46459961 291.74023438 C15.60822047 289.81208123 16.75142785 287.88368279 17.89428711 285.95507812 C18.49982422 284.93397949 19.10536133 283.91288086 19.72924805 282.86083984 C29.77498726 265.90450959 39.70293402 248.89840801 49.27709961 231.66992188 C51.60888191 227.47462503 53.96471365 223.29409659 56.33959961 219.12304688 C56.93740234 218.0722998 57.53520508 217.02155273 58.15112305 215.93896484 C59.28734272 213.94440187 60.42587846 211.9511558 61.56713867 209.95947266 C62.07470703 209.06728027 62.58227539 208.17508789 63.10522461 207.25585938 C63.55027344 206.47758789 63.99532227 205.69931641 64.45385742 204.89746094 C67.52983909 199.03880637 68.61322075 194.20082685 67.65209961 187.61523438 C66.28637674 183.93757834 64.40402522 180.66860594 62.40209961 177.30273438 C61.85924316 176.35052002 61.31638672 175.39830566 60.75708008 174.41723633 C59.07374016 171.47224213 57.36351081 168.5439798 55.65209961 165.61523438 C54.65720237 163.87719937 53.66490808 162.13767112 52.67553711 160.39648438 C50.72004543 156.95690242 48.75602474 153.52245025 46.78491211 150.09179688 C27.98509028 117.30252032 10.05368507 84.00565387 -7.32446289 50.44335938 C-10.61200511 44.09572822 -13.93981307 37.76966102 -17.27880859 31.44897461 C-17.65610107 30.73427002 -18.03339355 30.01956543 -18.42211914 29.28320312 C-18.74784912 28.66727295 -19.0735791 28.05134277 -19.40917969 27.41674805 C-19.71895752 26.82224854 -20.02873535 26.22774902 -20.34790039 25.61523438 C-20.70988525 24.95692627 -21.07187012 24.29861816 -21.44482422 23.62036133 C-23.23521505 19.64510319 -22.94808859 15.5667445 -21.69555664 11.49414062 C-17.2704154 1.44736073 -10.1594777 -0.12831978 0 0 Z " fill="#99CC33" transform="translate(337.347900390625,56.384765625)"/>
<path d="M0 0 C0.78574992 -0.00367669 1.57149984 -0.00735338 2.38106036 -0.01114148 C5.02258115 -0.02218324 7.66406261 -0.02602299 10.30560303 -0.02983093 C12.19614283 -0.03609519 14.08668141 -0.04274196 15.97721863 -0.04974365 C21.11990468 -0.06715624 26.26258143 -0.07770604 31.40528965 -0.08594918 C34.61769586 -0.09109862 37.83009918 -0.09717436 41.04250336 -0.10346031 C51.09171412 -0.12251281 61.14091752 -0.13674403 71.19014287 -0.14507228 C82.79341288 -0.154847 94.39649224 -0.18117248 105.99969506 -0.22157317 C114.96624675 -0.251723 123.93274376 -0.26654007 132.89934516 -0.26985329 C138.25567819 -0.27220498 143.61180755 -0.28118101 148.96808624 -0.30631447 C154.00781081 -0.32958042 159.04719741 -0.3338343 164.08696175 -0.32355309 C165.93525122 -0.32305726 167.78355725 -0.32939132 169.63179588 -0.34310913 C172.15849972 -0.36081119 174.6839884 -0.35373073 177.21069336 -0.34057617 C177.93921013 -0.35154542 178.6677269 -0.36251466 179.41831994 -0.37381631 C185.49028751 -0.29768506 189.63572143 1.64952674 194.10150146 5.74482727 C201.57574361 15.40979556 198.31762673 31.02904242 197.55462646 42.62763977 C197.46935748 43.9739954 197.38447792 45.32037575 197.29995728 46.66677856 C197.07809172 50.18247611 196.85044941 53.6977763 196.62164307 57.21302795 C196.39606991 60.69798289 196.17694408 64.18334338 195.95697021 67.6686554 C195.56813535 73.82267293 195.16137748 79.97535028 194.74818802 86.12777519 C194.43804189 90.80283001 194.17304813 95.47888006 193.9208374 100.15742493 C193.77283538 102.67094052 193.62472829 105.18444993 193.47650146 107.69795227 C193.39603073 109.41065559 193.39603073 109.41065559 193.31393433 111.15795898 C192.84756876 118.65988033 191.66411096 124.40173443 186.54290771 130.20576477 C185.96669678 130.66080383 185.39048584 131.1158429 184.79681396 131.58467102 C184.2180249 132.05775696 183.63923584 132.5308429 183.04290771 133.01826477 C177.14362835 136.97393005 168.95566661 135.2653907 162.33929443 134.42793274 C154.45365059 133.4351048 146.62057325 132.85337139 138.67181396 132.70967102 C137.75174561 132.67551086 136.83167725 132.64135071 135.88372803 132.6061554 C130.42662469 132.57010847 126.95980099 133.25662958 122.71112061 136.78999329 C118.58143316 140.9360891 117.13907167 146.35635787 116.79681396 152.08467102 C117.05883264 157.68313675 118.85404355 162.75595314 122.35931396 167.14717102 C128.06977353 171.16883116 132.32034658 171.70420529 139.20306396 171.61592102 C140.13098755 171.62297058 141.05891113 171.63002014 142.01495361 171.63728333 C144.96335768 171.65922805 147.91085263 171.65633522 150.85931396 171.64717102 C154.74521912 171.63509312 158.62977634 171.64890017 162.51556396 171.67842102 C163.3980481 171.66710144 164.28053223 171.65578186 165.1897583 171.64411926 C171.09589632 171.69211356 174.50403175 172.73814308 179.35931396 176.14717102 C184.21672279 181.39842381 185.71157413 185.30520538 185.55950928 192.33369446 C185.21038352 197.24018859 184.27309792 201.97096227 183.23431396 206.77217102 C183.04611084 207.75701477 182.85790771 208.74185852 182.66400146 209.75654602 C181.0280949 217.42485803 178.46708664 223.41669206 171.7802124 227.86152649 C167.18954524 229.58679435 163.27973762 229.39440728 158.42962646 229.19404602 C156.4804325 229.15123568 154.53121232 229.1096056 152.58197021 229.06904602 C149.53121279 228.98854333 146.48179553 228.89707755 143.43206787 228.78388977 C140.47279813 228.68060939 137.51516678 228.62202533 134.55462646 228.56904602 C133.65229279 228.52350586 132.74995911 228.4779657 131.82028198 228.43104553 C125.5651638 228.35685248 122.46154834 229.94070935 117.94619751 234.24562073 C114.08484668 238.8726476 113.73975507 243.32815131 113.35931396 249.14717102 C113.28197021 250.12814758 113.20462646 251.10912415 113.12493896 252.11982727 C112.80370937 259.17795535 113.60716415 263.78808903 118.35931396 269.14717102 C124.85515847 275.03875092 129.85420861 274.36633132 138.35931396 274.14717102 C141.21502257 274.00441958 144.06813325 273.82544787 146.92181396 273.64717102 C153.64978064 273.24500297 160.3695031 272.98153497 167.10931396 272.89717102 C167.94277344 272.87590149 168.77623291 272.85463196 169.63494873 272.8327179 C175.53397928 272.79906067 179.76801759 273.70798429 184.22259521 277.90107727 C184.7008374 278.49791321 185.17907959 279.09474915 185.67181396 279.70967102 C186.16294678 280.30908508 186.65407959 280.90849915 187.16009521 281.52607727 C190.7295708 286.35126413 189.95857397 292.4169026 189.35931396 298.14717102 C188.73847372 301.94893766 187.95075489 305.70110938 187.10931396 309.45967102 C186.90483643 310.39005188 186.70035889 311.32043274 186.48968506 312.27900696 C182.95810835 327.21146359 182.95810835 327.21146359 176.79681396 331.08467102 C176.2180249 331.46494446 175.63923584 331.8452179 175.04290771 332.23701477 C171.25999556 334.28206937 168.04801369 334.27926026 163.8263092 334.29434204 C163.15968787 334.29801873 162.49306653 334.30169542 161.80624455 334.30548352 C159.56782307 334.31651486 157.32944801 334.32036327 155.09100342 334.32417297 C153.48779656 334.3304381 151.88459115 334.33708495 150.28138733 334.34408569 C145.01180024 334.36512465 139.74221287 334.3754887 134.47259521 334.38545227 C132.65784375 334.38950005 130.84309244 334.39361698 129.02834129 334.39780235 C120.50138037 334.41685456 111.9744281 334.43108489 103.44744998 334.43941432 C93.60892031 334.44918384 83.77061579 334.47549574 73.93216544 334.51591522 C66.32524689 334.54609277 58.71839281 334.5608848 51.11141557 334.56419533 C46.5693721 334.56654418 42.02756916 334.57548287 37.48558998 334.60065651 C33.20998693 334.62397064 28.93478219 334.62815713 24.659132 334.61789513 C23.09345803 334.61740045 21.52776424 334.62370091 19.96215057 334.63745117 C5.21136924 334.75970956 5.21136924 334.75970956 -1.64068604 330.14717102 C-10.28721081 321.27310612 -8.77316467 307.99505464 -9.14971924 296.4433136 C-9.19229292 295.21581076 -9.2348666 293.98830791 -9.27873039 292.72360802 C-9.37072021 290.06105661 -9.46161968 287.39849495 -9.55064964 284.73584557 C-9.69393306 280.45367173 -9.84190257 276.17166722 -9.99061584 271.88967896 C-10.17582939 266.54946047 -10.36021009 261.20921476 -10.54335874 255.86892503 C-11.11853884 239.10052946 -11.70958289 222.33269787 -12.30865479 205.56513977 C-12.33693989 204.77320913 -12.36522499 203.9812785 -12.39436722 203.16534996 C-13.388456 175.36175943 -14.47911004 147.5639702 -15.76568604 119.77217102 C-15.80614674 118.89626312 -15.84660744 118.02035522 -15.88829422 117.11790466 C-17.03275704 92.40251549 -18.29051581 67.69266274 -19.77789307 42.99531555 C-21.59699839 12.55854755 -21.59699839 12.55854755 -16.64068604 6.14717102 C-11.54713679 0.84083643 -7.11338399 -0.00177837 0 0 Z " fill="#3CCDDD" transform="translate(86.64068603515625,56.85282897949219)"/>
<path d="M0 0 C-0.87011719 0.78310547 -0.87011719 0.78310547 -1.7578125 1.58203125 C-10.13730204 9.47755687 -16.17621562 18.2870702 -17 30 C-16.92788148 32.7813288 -16.81275132 35.540245 -16.65234375 38.31640625 C-16.60612885 39.17484131 -16.55991394 40.03327637 -16.51229858 40.91772461 C-16.34714003 43.94548927 -16.17423689 46.97274441 -16 50 C-15.93412689 51.1524118 -15.86825378 52.30482361 -15.80038452 53.49215698 C-15.578874 57.35941341 -15.35615298 61.22659892 -15.1328125 65.09375 C-15.0928396 65.7859067 -15.05286671 66.47806339 -15.01168251 67.19119453 C-14.88678979 69.35272896 -14.76177236 71.51425613 -14.63671875 73.67578125 C-14.59450038 74.40618339 -14.55228201 75.13658552 -14.50878429 75.88912106 C-14.30148346 79.47097108 -14.09272505 83.05272313 -13.88037109 86.63427734 C-10.2576894 147.85390341 -8.20518173 209.15478835 -6.07092285 270.44012451 C-5.57932454 284.55365313 -5.08417227 298.66705718 -4.58627522 312.78036493 C-4.43143959 317.17242134 -4.27737561 321.56450191 -4.12520981 325.95665169 C-3.80939242 335.07082747 -3.4875043 344.18469002 -3.14076996 353.29774857 C-3.05242141 355.62131622 -2.96565656 357.94494521 -2.8812027 360.26865768 C-2.78115694 362.95234881 -2.66927375 365.6351634 -2.55126953 368.31811523 C-2.52637892 369.02664926 -2.5014883 369.73518328 -2.47584343 370.46518803 C-1.96729004 380.88723959 2.47795089 390.76073469 10 398 C18.79384277 404.82189015 27.63444323 408.47882124 38.7596283 408.38095093 C39.59330714 408.3856309 40.42698599 408.39031087 41.28592783 408.39513266 C44.05398469 408.40701131 46.82153988 408.39765355 49.58959961 408.38818359 C51.58453152 408.3922525 53.57946118 408.39759616 55.5743866 408.40411377 C60.97523581 408.41775607 66.37591252 408.41250119 71.77676463 408.40297651 C77.43887329 408.39536289 83.10096752 408.40243035 88.76307678 408.40713501 C98.27135866 408.41258804 107.77957055 408.40541326 117.2878418 408.39111328 C128.26634328 408.37479238 139.24467756 408.38007309 150.22317499 408.3965925 C159.66293958 408.41022583 169.10265396 408.41211784 178.54242522 408.40427649 C184.17425084 408.39960954 189.805998 408.39894811 195.43781853 408.40888596 C200.73451462 408.41758004 206.03099612 408.41148908 211.32766914 408.39420319 C213.2666043 408.39025118 215.20555766 408.39135024 217.14448547 408.39799118 C231.04831078 408.44120591 242.45854595 407.63619148 254 399 C255.76568914 397.18323721 257.33177113 395.35093528 258.84375 393.3203125 C259.2253125 392.88460938 259.606875 392.44890625 260 392 C260.66 392 261.32 392 262 392 C263.15625 393.3203125 263.15625 393.3203125 264.5 395.125 C270.15944177 401.94393716 279.4876061 407.22311403 288.34698296 408.27997971 C290.97567611 408.38766619 293.58960681 408.40554496 296.22045898 408.38818359 C297.21178833 408.39344055 298.20311768 408.39869751 299.2244873 408.40411377 C302.4818526 408.41725244 305.73872399 408.40859656 308.99609375 408.3984375 C311.27238559 408.40046015 313.5486768 408.40337318 315.82496643 408.40713501 C320.58853341 408.41155021 325.35193125 408.40515367 330.11547852 408.39111328 C336.20602879 408.37403184 342.29618211 408.38386138 348.3867178 408.40183067 C353.08546409 408.41269845 357.7841171 408.40920824 362.48286629 408.4014473 C364.72783519 408.39945307 366.97281269 408.40187711 369.21777153 408.40888596 C372.36212294 408.41654856 375.50584188 408.40482822 378.65014648 408.38818359 C380.02744682 408.39729263 380.02744682 408.39729263 381.43257141 408.40658569 C392.31077894 408.30050243 402.21404344 404.3712289 410.234375 396.92578125 C414.73458964 392.07874555 418.08655052 386.92494773 421 381 C421.66 381 422.32 381 423 381 C424.29480687 382.9794174 425.51025107 385.01098763 426.6875 387.0625 C432.76955739 397.22074239 438.91948582 402.50137163 450 407 C453.32785558 407.78853688 456.42619678 408.13066712 459.8416748 408.15390015 C461.26262451 408.16680084 461.26262451 408.16680084 462.71228027 408.17996216 C463.7398645 408.18422211 464.76744873 408.18848206 465.82617188 408.19287109 C466.91792725 408.20104858 468.00968262 408.20922607 469.13452148 408.21765137 C472.7459255 408.24245166 476.35729026 408.25901039 479.96875 408.2734375 C481.82410118 408.28142302 481.82410118 408.28142302 483.7169342 408.28956985 C488.92073474 408.31078948 494.12452944 408.32991738 499.32836151 408.34119225 C506.75166959 408.35738865 514.17445082 408.39047309 521.59756041 408.44759309 C527.46922488 408.49121139 533.34072844 408.5069624 539.21253967 408.51332474 C541.69706466 408.52001377 544.1815827 408.535174 546.66600037 408.55921555 C564.92766929 408.78827838 564.92766929 408.78827838 582 403 C585.55702802 401.82281121 585.55702802 401.82281121 588.40234375 402.9609375 C589.23894531 403.42757813 590.07554687 403.89421875 590.9375 404.375 C596.18620359 407.27922857 600.54605528 408.11890076 606.52502441 408.15390015 C608.17315628 408.16680084 608.17315628 408.16680084 609.85458374 408.17996216 C611.05048126 408.18422211 612.24637878 408.18848206 613.47851562 408.19287109 C614.74583527 408.20104858 616.01315491 408.20922607 617.31887817 408.21765137 C621.51464739 408.24378491 625.71042612 408.25917483 629.90625 408.2734375 C631.35623683 408.27880159 632.8062236 408.28417911 634.25621033 408.28956985 C640.29382719 408.31118988 646.33144148 408.32992131 652.36908722 408.34119225 C660.99049774 408.35739777 669.61145527 408.39050226 678.2326951 408.44759309 C684.31108026 408.48645642 690.38934513 408.50584444 696.46785116 408.51111281 C700.08959864 408.51474526 703.71086206 408.52653798 707.33247375 408.55921555 C711.38402641 408.59524888 715.43462164 408.59088408 719.48632812 408.58349609 C721.25588364 408.6081041 721.25588364 408.6081041 723.06118774 408.63320923 C734.37150609 408.54930343 745.83186707 405.18612442 754 397 C764.36803339 385.07462826 765.65787679 371.85222572 766.25 356.75 C766.32656669 355.11841571 766.4046813 353.48690329 766.484375 351.85546875 C766.67407059 347.90424596 766.84291576 343.95264804 767 340 C770.61973402 338.68373308 773.09567131 338 777 338 C777.23074219 338.85980469 777.46148438 339.71960938 777.69921875 340.60546875 C780.00944774 348.97890744 782.73591326 356.94680239 786 365 C785.01 365 784.02 365 783 365 C783.01160156 366.30710937 783.02320313 367.61421875 783.03515625 368.9609375 C783.31499645 412.64893158 783.31499645 412.64893158 772 425 C771.47535156 425.61488281 770.95070313 426.22976563 770.41015625 426.86328125 C763.98023192 433.9286334 754.75130048 438.54150632 745.17531586 439.19182968 C741.65565268 439.27445932 738.14076348 439.29306533 734.62011719 439.29052734 C733.26748791 439.2965192 731.91486204 439.30332626 730.5622406 439.31088257 C726.90292387 439.32848485 723.2437008 439.33323555 719.58434582 439.33451414 C717.29318212 439.3359398 715.00204193 439.34021727 712.71088409 439.34550858 C704.70356242 439.36399113 696.69630715 439.37218159 688.68896484 439.37060547 C681.2481966 439.36940517 673.80771895 439.39048992 666.36702418 439.4220928 C659.95995633 439.44832684 653.55298295 439.45896976 647.14586186 439.45769465 C643.32757284 439.45718702 639.50954216 439.46275873 635.69130707 439.48405075 C632.09602092 439.50355351 628.50123632 439.50347666 624.90593147 439.48901749 C622.97459072 439.48596187 621.04324926 439.50252203 619.11198425 439.51989746 C610.14531574 439.45585614 602.46763471 438.00881521 594.9375 432.9375 C591.23971761 431.75735668 590.44153807 432.46246555 587.0625 434.1875 C586.26972656 434.65542969 585.47695313 435.12335938 584.66015625 435.60546875 C577.69611136 439.25622356 571.15438309 439.29248821 563.44018555 439.2746582 C562.29455139 439.27976913 561.14891724 439.28488007 559.96856689 439.29014587 C556.19123064 439.30401589 552.41407741 439.30308684 548.63671875 439.30078125 C546.0026696 439.30466992 543.36862108 439.30900494 540.73457336 439.31376648 C535.21601752 439.32196673 529.6975129 439.32108039 524.17895508 439.31567383 C517.82088078 439.30964003 511.46302811 439.32193467 505.10499161 439.3432439 C498.96525702 439.36305689 492.82562524 439.36602488 486.68586159 439.36250877 C484.08445529 439.36302087 481.48304536 439.3682375 478.88165855 439.37832069 C475.23693354 439.39071326 471.59271548 439.38387562 467.94799805 439.37231445 C466.34931633 439.38378006 466.34931633 439.38378006 464.71833801 439.39547729 C453.27079191 439.31557334 443.99422457 436.17652948 435 429 C430.20906056 424.070547 422 415.30959731 422 408 C418.9805204 410.64670434 417.25583784 413.79995891 415.25 417.25 C408.74729583 428.07586476 400.95043389 434.86614416 388.7428093 438.38441658 C384.23496334 439.39613666 379.8363969 439.42596535 375.23291016 439.40405273 C373.69418495 439.41434761 373.69418495 439.41434761 372.12437439 439.42485046 C368.76245948 439.44302221 365.40101557 439.43929437 362.0390625 439.43359375 C359.68313446 439.43816036 357.32720775 439.44346736 354.97128296 439.44947815 C350.04395115 439.45839056 345.11678158 439.45600759 340.18945312 439.44604492 C333.89964274 439.43456179 327.61039434 439.45476696 321.32065773 439.48396206 C316.45794157 439.50237795 311.59535873 439.50202076 306.73261642 439.49632454 C304.4147602 439.49617196 302.09689458 439.50216309 299.77907181 439.51461601 C281.32470265 439.5998031 268.75320521 438.45417506 255 425.25 C253.25 423.515625 253.25 423.515625 252 422 C252 421.34 252 420.68 252 420 C251.319375 420.680625 250.63875 421.36125 249.9375 422.0625 C249.47601563 422.51753906 249.01453125 422.97257812 248.5390625 423.44140625 C247.48666706 424.50715696 246.46135894 425.60016098 245.4609375 426.71484375 C239.12012621 433.58155171 230.38980198 438.32090499 220.95997965 439.1874702 C218.66347998 439.2621803 216.37444364 439.27623328 214.07673645 439.26742554 C213.20125851 439.27195665 212.32578057 439.27648776 211.42377299 439.28115618 C208.50226898 439.29377456 205.580952 439.29218145 202.65942383 439.29052734 C200.55965944 439.29651426 198.45989725 439.30332019 196.36013794 439.31088257 C190.66363561 439.32853491 184.96719339 439.33323768 179.27066636 439.33451414 C175.7084346 439.33593694 172.14621807 439.34020903 168.5839901 439.34550858 C156.147048 439.36400762 143.71014875 439.3721795 131.27319336 439.37060547 C119.6960413 439.3694047 108.11907587 439.39049474 96.54197103 439.4220928 C86.59012345 439.44828305 76.63833671 439.45897158 66.68645495 439.45769465 C60.7482123 439.45718575 54.81013547 439.46282911 48.87192726 439.48405075 C43.28303063 439.50347885 37.69445719 439.50352619 32.10554886 439.48901749 C30.06101825 439.48693385 28.01646717 439.49160357 25.97197151 439.5037384 C10.92785772 439.58720554 -1.49345118 438.79708916 -13 428 C-13.63808594 427.40316406 -14.27617187 426.80632812 -14.93359375 426.19140625 C-23.41371108 417.41949994 -26.01526493 406.38921777 -26.39704895 394.55377197 C-26.42774953 393.70418561 -26.45845011 392.85459924 -26.49008101 391.97926784 C-26.59207531 389.12985604 -26.68821934 386.28027677 -26.78442383 383.43066406 C-26.85653006 381.38402529 -26.92901387 379.3373998 -27.00184631 377.29078674 C-27.1585479 372.86688074 -27.31272794 368.44289638 -27.46503639 364.01883698 C-27.70926111 356.93057871 -27.96016438 349.8425661 -28.21208191 342.75457764 C-28.83941285 325.07580323 -29.4589262 307.39675576 -30.07513428 289.71759033 C-30.67511113 272.50420323 -31.27932262 255.29097517 -31.89453125 238.078125 C-31.93762468 236.87212568 -31.98071811 235.66612636 -32.0251174 234.4235816 C-33.19869069 201.65479484 -34.5085093 168.89721307 -36.15234375 136.1484375 C-36.19328478 135.33172105 -36.23422581 134.5150046 -36.27640748 133.67353916 C-37.47198138 109.88658156 -38.80066877 86.10735195 -40.32343578 62.33893967 C-42.48809452 27.83251672 -42.48809452 27.83251672 -31.140625 13.375 C-28.07860634 9.97772382 -24.90503529 7.36599197 -21 5 C-20.36320312 4.61199219 -19.72640625 4.22398438 -19.0703125 3.82421875 C-13.44349496 0.71704039 -6.2926967 -2.09756557 0 0 Z " fill="#8CC640" transform="translate(41,23)"/>
<path d="M0 0 C18.6349826 11.27906841 30.62825163 29.18719355 36 50 C40.49539153 72.33574115 37.41157724 94.60507671 25 114 C10.37103322 134.63221449 -10.92549714 148.75542603 -35.88671875 153.34375 C-63.19927349 157.41192632 -90.29502339 152.19512837 -112.64404297 135.79345703 C-123.4667267 127.61215578 -134.05776919 116.84980011 -139 104 C-138.505 103.01 -138.505 103.01 -138 102 C-137.30777344 102.56847656 -136.61554687 103.13695312 -135.90234375 103.72265625 C-114.4325408 120.66654553 -89.54524836 124.94359361 -62.6875 122.7265625 C-60.05793789 122.30166374 -57.56683618 121.71196916 -55 121 C-53.79730469 120.69320312 -52.59460938 120.38640625 -51.35546875 120.0703125 C-29.04277771 114.01139247 -10.85963102 100.60259935 0.96484375 80.69140625 C10.77377875 62.42148716 13.32559397 40.90589219 8.375 20.6875 C6.55402694 14.92326874 4.06289314 9.59555401 1.171875 4.29296875 C0 2 0 2 0 0 Z " fill="#8CC63F" transform="translate(984,308)"/>
<path d="M0 0 C0.66902344 0.474375 1.33804688 0.94875 2.02734375 1.4375 C8.75096672 6.61630806 13.6073951 14.64437062 15 23 C15.97273296 35.28075358 14.16356661 45.29817679 6.09765625 54.87109375 C-4.20508973 65.3273257 -17.40622933 71.02765455 -32.0625 71.25 C-46.78973551 71.08245466 -59.22950056 66.31002098 -69.9921875 56.203125 C-78.18365683 47.21482013 -80.47957601 38.12622073 -80.24609375 26.24609375 C-79.41499538 15.28351051 -74.58607123 8.2523222 -66.8125 0.8125 C-48.48382852 -14.84067749 -18.75465426 -13.96815342 0 0 Z " fill="#E8E043" transform="translate(939,320)"/>
<path d="M0 0 C4.58319919 0.62458185 8.37007898 2.47377124 12.4375 4.5625 C13.49420898 5.10148926 13.49420898 5.10148926 14.57226562 5.65136719 C16.72081042 6.75652612 18.86158201 7.87538768 21 9 C21.61117676 9.31888184 22.22235352 9.63776367 22.85205078 9.96630859 C36.89515167 17.3708527 49.55818589 27.02104245 61 38 C61.94101562 38.87785156 62.88203125 39.75570312 63.8515625 40.66015625 C76.46871835 52.64676239 86.07772627 66.55972951 94 82 C94.31807617 82.61166016 94.63615234 83.22332031 94.96386719 83.85351562 C118.72343628 130.08164275 118.13040094 187.49595364 103.24609375 236.30078125 C102.00578059 239.98283943 100.58210488 243.4551679 99 247 C95.16438171 245.51547366 91.46495502 243.82575763 87.75 242.0625 C82.56918808 239.65186055 77.46178164 237.66630626 72 236 C72.55270679 232.22559439 73.78051353 229.01211168 75.32324219 225.53491211 C85.6391306 202.18828477 88.25157977 177.28929981 88.3125 152 C88.31617584 151.27191132 88.31985168 150.54382263 88.32363892 149.79367065 C88.43933319 105.98142496 73.82732279 64.56021606 43 33 C42.22527344 32.16339844 41.45054687 31.32679687 40.65234375 30.46484375 C29.78924218 19.02140954 16.82434249 10.56615073 3.15625 2.86328125 C2.1146875 2.24839844 1.073125 1.63351563 0 1 C0 0.67 0 0.34 0 0 Z " fill="#8CC640" transform="translate(860,36)"/>
<path d="M0 0 C10.70150492 0.09792227 21.29707404 2.90727653 29.38671875 10.1015625 C36.968279 18.40770076 38.10699498 27.3075227 37.73046875 38.26171875 C37.018943 49.05790189 33.0738897 57.8841884 25.375 65.375 C20.24928385 69.79867912 14.72454825 72.1190197 8.375 74.3125 C7.69050781 74.55871094 7.00601563 74.80492187 6.30078125 75.05859375 C2.2503078 76.37841094 -1.40045199 76.85016975 -5.625 76.3125 C-9.09713829 74.28383493 -11.32775337 72.20423989 -12.625 68.3125 C-12.71741195 65.88941799 -12.75074247 63.50066761 -12.73046875 61.078125 C-12.7267778 60.33733704 -12.72308685 59.59654907 -12.71928406 58.83331299 C-12.6470134 49.57768909 -12.39508207 40.32758226 -12.04516602 31.07861328 C-11.97263329 29.04671002 -11.91000669 27.01443184 -11.85668945 24.98193359 C-11.77762837 22.00230435 -11.66759972 19.02523359 -11.55078125 16.046875 C-11.53284012 15.14169128 -11.51489899 14.23650757 -11.49641418 13.30389404 C-11.28385814 8.77191963 -11.09344751 6.88429837 -8.12963867 3.26660156 C-7.30310791 2.62174805 -6.47657715 1.97689453 -5.625 1.3125 C-3.99798805 -0.31451195 -2.25146295 0.06309409 0 0 Z " fill="#FEFDFD" transform="translate(782.625,190.6875)"/>
</svg>
